<?xml version="1.0" standalone="no"?>
<!DOCTYPE svg PUBLIC "-//W3C//DTD SVG 20010904//EN"
 "http://www.w3.org/TR/2001/REC-SVG-20010904/DTD/svg10.dtd">
<svg version="1.0" xmlns="http://www.w3.org/2000/svg"
 width="225.000000pt" height="225.000000pt" viewBox="0 0 225.000000 225.000000"
 preserveAspectRatio="xMidYMid meet">

<g transform="translate(0.000000,225.000000) scale(0.100000,-0.100000)"
fill="#000000" stroke="none">
<path d="M180 2241 c-69 -21 -121 -65 -156 -131 -18 -33 -19 -77 -19 -985 l0
-950 28 -47 c31 -53 79 -94 134 -114 56 -19 1860 -19 1916 0 55 20 103 61 134
114 l28 47 0 950 c0 878 -1 952 -17 981 -29 52 -68 94 -112 117 l-41 22 -935
2 c-514 1 -946 -2 -960 -6z m1461 -208 c31 -18 59 -67 59 -103 0 -29 -26 -76
-52 -94 -12 -9 -42 -16 -66 -16 -37 0 -50 6 -78 34 -28 28 -34 42 -34 76 0 52
13 76 53 100 39 24 80 25 118 3z m380 -19 c77 -73 26 -194 -81 -194 -34 0 -48
6 -76 34 -28 28 -34 42 -34 76 0 52 13 76 53 101 43 27 99 20 138 -17z m49
-1084 l0 -720 -945 0 -945 0 0 720 0 720 945 0 945 0 0 -720z"/>
<path d="M580 1215 l0 -175 180 0 180 0 0 175 0 175 -180 0 -180 0 0 -175z"/>
<path d="M1320 1215 l0 -175 180 0 180 0 0 175 0 175 -180 0 -180 0 0 -175z"/>
<path d="M580 630 l0 -180 180 0 180 0 0 180 0 180 -180 0 -180 0 0 -180z"/>
<path d="M1320 630 l0 -180 180 0 180 0 0 180 0 180 -180 0 -180 0 0 -180z"/>
</g>
</svg>
